<svg xmlns="http://www.w3.org/2000/svg" xmlns:xlink="http://www.w3.org/1999/xlink" width="40" zoomAndPan="magnify" viewBox="0 0 30 30.000001" height="40" preserveAspectRatio="xMidYMid meet" version="1.0"><defs><clipPath id="a442cfc8ac"><path d="M 6.289062 5.804688 L 23.710938 5.804688 L 23.710938 23.226562 L 6.289062 23.226562 Z M 6.289062 5.804688 " clip-rule="nonzero"/></clipPath><clipPath id="28c9af1e7f"><path d="M 11 9 L 20 9 L 20 23.226562 L 11 23.226562 Z M 11 9 " clip-rule="nonzero"/></clipPath></defs><g clip-path="url(#a442cfc8ac)"><path fill="#021e21" d="M 23.710938 14.519531 C 23.710938 9.707031 19.8125 5.804688 15 5.804688 C 10.191406 5.804688 6.289062 9.707031 6.289062 14.519531 C 6.289062 18.601562 9.101562 22.03125 12.898438 22.972656 L 12.898438 17.179688 L 11.101562 17.179688 L 11.101562 14.519531 L 12.898438 14.519531 L 12.898438 13.371094 C 12.898438 10.40625 14.238281 9.03125 17.148438 9.03125 C 17.703125 9.03125 18.652344 9.140625 19.042969 9.25 L 19.042969 11.660156 C 18.835938 11.640625 18.480469 11.628906 18.035156 11.628906 C 16.609375 11.628906 16.054688 12.167969 16.054688 13.574219 L 16.054688 14.515625 L 18.902344 14.515625 L 18.414062 17.179688 L 16.054688 17.179688 L 16.054688 23.164062 C 20.371094 22.644531 23.710938 18.96875 23.710938 14.515625 Z M 23.710938 14.519531 " fill-opacity="1" fill-rule="nonzero"/></g><g clip-path="url(#28c9af1e7f)"><path fill="#ffffff" d="M 18.414062 17.179688 L 18.902344 14.515625 L 16.058594 14.515625 L 16.058594 13.574219 C 16.058594 12.167969 16.609375 11.628906 18.039062 11.628906 C 18.480469 11.628906 18.839844 11.640625 19.042969 11.660156 L 19.042969 9.25 C 18.65625 9.140625 17.703125 9.03125 17.148438 9.03125 C 14.238281 9.03125 12.898438 10.40625 12.898438 13.371094 L 12.898438 14.519531 L 11.101562 14.519531 L 11.101562 17.179688 L 12.898438 17.179688 L 12.898438 22.972656 C 13.570312 23.140625 14.277344 23.230469 15.003906 23.230469 C 15.359375 23.230469 15.710938 23.207031 16.058594 23.164062 L 16.058594 17.179688 Z M 18.414062 17.179688 " fill-opacity="1" fill-rule="nonzero"/></g></svg>