<svg xmlns="http://www.w3.org/2000/svg" xmlns:xlink="http://www.w3.org/1999/xlink" width="40" zoomAndPan="magnify" viewBox="0 0 30 30.000001" height="40" preserveAspectRatio="xMidYMid meet" version="1.0"><defs><clipPath id="adb6e863bb"><path d="M 6.363281 5.878906 L 23.78125 5.878906 L 23.78125 23.296875 L 6.363281 23.296875 Z M 6.363281 5.878906 " clip-rule="nonzero"/></clipPath></defs><g clip-path="url(#adb6e863bb)"><path fill="#021e21" d="M 11.421875 5.9375 C 10.5 5.980469 9.875 6.128906 9.324219 6.34375 C 8.757812 6.566406 8.277344 6.859375 7.800781 7.34375 C 7.320312 7.824219 7.023438 8.304688 6.804688 8.871094 C 6.59375 9.421875 6.449219 10.050781 6.410156 10.96875 C 6.367188 11.890625 6.359375 12.183594 6.363281 14.527344 C 6.367188 16.871094 6.378906 17.167969 6.421875 18.085938 C 6.464844 19.003906 6.613281 19.632812 6.828125 20.179688 C 7.046875 20.75 7.34375 21.230469 7.824219 21.707031 C 8.304688 22.1875 8.789062 22.480469 9.355469 22.699219 C 9.90625 22.914062 10.535156 23.058594 11.453125 23.097656 C 12.375 23.140625 12.667969 23.148438 15.011719 23.144531 C 17.355469 23.140625 17.648438 23.128906 18.570312 23.085938 C 19.488281 23.039062 20.117188 22.894531 20.664062 22.679688 C 21.230469 22.457031 21.714844 22.160156 22.191406 21.679688 C 22.671875 21.199219 22.964844 20.71875 23.183594 20.148438 C 23.394531 19.601562 23.542969 18.972656 23.582031 18.054688 C 23.621094 17.132812 23.628906 16.839844 23.625 14.496094 C 23.621094 12.152344 23.609375 11.859375 23.566406 10.9375 C 23.523438 10.019531 23.378906 9.390625 23.164062 8.84375 C 22.941406 8.273438 22.644531 7.792969 22.164062 7.316406 C 21.683594 6.835938 21.203125 6.542969 20.632812 6.324219 C 20.085938 6.109375 19.457031 5.964844 18.539062 5.925781 C 17.617188 5.882812 17.324219 5.875 14.980469 5.878906 C 12.632812 5.882812 12.339844 5.894531 11.421875 5.9375 M 11.519531 21.542969 C 10.679688 21.507812 10.222656 21.367188 9.917969 21.25 C 9.515625 21.09375 9.226562 20.90625 8.921875 20.605469 C 8.621094 20.304688 8.433594 20.015625 8.277344 19.613281 C 8.15625 19.3125 8.015625 18.855469 7.976562 18.011719 C 7.933594 17.101562 7.921875 16.828125 7.917969 14.523438 C 7.914062 12.222656 7.921875 11.949219 7.960938 11.035156 C 8 10.195312 8.140625 9.738281 8.257812 9.433594 C 8.414062 9.03125 8.597656 8.742188 8.898438 8.441406 C 9.203125 8.136719 9.488281 7.949219 9.890625 7.792969 C 10.195312 7.671875 10.652344 7.53125 11.492188 7.492188 C 12.402344 7.449219 12.675781 7.441406 14.980469 7.433594 C 17.285156 7.429688 17.558594 7.4375 18.46875 7.480469 C 19.3125 7.515625 19.769531 7.65625 20.070312 7.773438 C 20.476562 7.929688 20.765625 8.113281 21.066406 8.417969 C 21.367188 8.71875 21.558594 9.003906 21.714844 9.410156 C 21.832031 9.710938 21.972656 10.167969 22.015625 11.007812 C 22.058594 11.917969 22.066406 12.191406 22.070312 14.496094 C 22.074219 16.800781 22.066406 17.074219 22.027344 17.984375 C 21.992188 18.824219 21.851562 19.285156 21.734375 19.589844 C 21.578125 19.992188 21.390625 20.277344 21.089844 20.582031 C 20.789062 20.882812 20.5 21.070312 20.097656 21.230469 C 19.792969 21.347656 19.335938 21.488281 18.496094 21.53125 C 17.585938 21.574219 17.3125 21.582031 15.007812 21.585938 C 12.703125 21.589844 12.429688 21.582031 11.519531 21.542969 M 18.558594 9.898438 C 18.558594 10.46875 19.023438 10.933594 19.59375 10.929688 C 20.167969 10.929688 20.628906 10.464844 20.628906 9.894531 C 20.628906 9.320312 20.164062 8.859375 19.589844 8.859375 C 19.019531 8.859375 18.554688 9.324219 18.558594 9.894531 M 10.5625 14.519531 C 10.566406 16.96875 12.554688 18.949219 15.003906 18.941406 C 17.449219 18.9375 19.433594 16.949219 19.425781 14.503906 C 19.421875 12.054688 17.433594 10.074219 14.984375 10.078125 C 12.539062 10.082031 10.558594 12.070312 10.5625 14.519531 M 12.117188 14.515625 C 12.113281 12.929688 13.398438 11.636719 14.988281 11.632812 C 16.578125 11.632812 17.867188 12.917969 17.871094 14.507812 C 17.875 16.09375 16.589844 17.386719 15 17.386719 C 13.410156 17.390625 12.121094 16.105469 12.117188 14.515625 " fill-opacity="1" fill-rule="nonzero"/></g></svg>