<svg xmlns="http://www.w3.org/2000/svg" xmlns:xlink="http://www.w3.org/1999/xlink" width="40" zoomAndPan="magnify" viewBox="0 0 30 30.000001" height="40" preserveAspectRatio="xMidYMid meet" version="1.0"><defs><clipPath id="8e6b5ceceb"><path d="M 6.363281 5.878906 L 23.78125 5.878906 L 23.78125 23.296875 L 6.363281 23.296875 Z M 6.363281 5.878906 " clip-rule="nonzero"/></clipPath><clipPath id="7b03645ea0"><path d="M 10 7.664062 L 20.566406 7.664062 L 20.566406 21.453125 L 10 21.453125 Z M 10 7.664062 " clip-rule="nonzero"/></clipPath></defs><g clip-path="url(#8e6b5ceceb)"><path stroke-linecap="butt" transform="matrix(0.0341422, 0, 0, 0.0341422, 6.362902, 5.882448)" fill="none" stroke-linejoin="miter" d="M 504.678717 255.033136 C 504.678717 271.393932 503.076961 287.640316 499.873448 303.657878 C 496.669936 319.789851 491.979078 335.349769 485.686465 350.452041 C 479.393851 365.668725 471.728304 379.97012 462.575411 393.585048 C 453.53693 407.199976 443.125514 419.785203 431.569987 431.455141 C 420.01446 443.010668 407.429233 453.307672 393.814305 462.460565 C 380.084966 471.499046 365.783572 479.279005 350.566888 485.457207 C 335.464615 491.749821 319.904698 496.55509 303.772724 499.758602 C 287.755162 502.847703 271.508778 504.449459 255.147982 504.449459 C 238.672776 504.449459 222.426391 502.847703 206.408829 499.758602 C 190.276856 496.55509 174.716939 491.749821 159.614666 485.457207 C 144.397982 479.279005 130.096587 471.499046 116.48166 462.460565 C 102.752321 453.307672 90.167093 443.010668 78.611566 431.455141 C 67.05604 419.785203 56.644624 407.199976 47.606143 393.585048 C 38.45325 379.97012 30.787703 365.668725 24.495089 350.452041 C 18.202475 335.349769 13.511618 319.789851 10.308105 303.657878 C 7.104593 287.640316 5.502837 271.393932 5.502837 255.033136 C 5.502837 238.672341 7.104593 222.425956 10.308105 206.293983 C 13.511618 190.276421 18.202475 174.602092 24.495089 159.49982 C 30.787703 144.397547 38.45325 129.981741 47.606143 116.366813 C 56.644624 102.751885 67.05604 90.166658 78.611566 78.611131 C 90.167093 66.941193 102.752321 56.644189 116.48166 47.491296 C 130.096587 38.452815 144.397982 30.787267 159.614666 24.494654 C 174.716939 18.20204 190.276856 13.511183 206.408829 10.30767 C 222.426391 7.104158 238.672776 5.502402 255.147982 5.502402 C 271.508778 5.502402 287.755162 7.104158 303.772724 10.30767 C 319.904698 13.511183 335.464615 18.20204 350.566888 24.494654 C 365.783572 30.787267 380.084966 38.452815 393.814305 47.491296 C 407.429233 56.644189 420.01446 66.941193 431.569987 78.611131 C 443.125514 90.166658 453.53693 102.751885 462.575411 116.366813 C 471.728304 129.981741 479.393851 144.397547 485.686465 159.49982 C 491.979078 174.602092 496.669936 190.276421 499.873448 206.293983 C 503.076961 222.425956 504.678717 238.672341 504.678717 255.033136 Z M 504.678717 255.033136 " stroke="#000000" stroke-width="11" stroke-opacity="1" stroke-miterlimit="10"/></g><g clip-path="url(#7b03645ea0)"><path fill="#021e21" d="M 18.964844 8.941406 C 18.566406 8.683594 18.140625 8.492188 17.683594 8.367188 L 16.332031 7.664062 L 15.914062 7.664062 L 15.914062 13.699219 C 15.667969 13.554688 15.40625 13.441406 15.132812 13.359375 C 14.859375 13.273438 14.578125 13.21875 14.292969 13.195312 C 14.007812 13.171875 13.722656 13.179688 13.441406 13.21875 C 13.15625 13.253906 12.878906 13.324219 12.609375 13.421875 C 12.34375 13.523438 12.085938 13.648438 11.847656 13.804688 C 11.605469 13.960938 11.382812 14.136719 11.183594 14.339844 C 10.980469 14.542969 10.804688 14.765625 10.648438 15.007812 C 10.496094 15.25 10.371094 15.507812 10.273438 15.777344 C 10.175781 16.046875 10.109375 16.324219 10.074219 16.605469 C 10.039062 16.890625 10.03125 17.175781 10.058594 17.460938 C 10.082031 17.746094 10.140625 18.027344 10.226562 18.296875 C 10.3125 18.570312 10.429688 18.832031 10.574219 19.078125 C 10.71875 19.328125 10.886719 19.558594 11.078125 19.765625 C 11.273438 19.976562 11.488281 20.164062 11.722656 20.328125 C 11.957031 20.492188 12.207031 20.628906 12.472656 20.738281 C 12.738281 20.847656 13.011719 20.925781 13.292969 20.976562 C 13.574219 21.027344 13.859375 21.042969 14.144531 21.03125 C 14.433594 21.019531 14.714844 20.972656 14.988281 20.898438 C 15.265625 20.824219 15.53125 20.722656 15.785156 20.589844 C 16.039062 20.457031 16.277344 20.296875 16.496094 20.113281 C 16.714844 19.929688 16.910156 19.722656 17.085938 19.496094 C 17.261719 19.269531 17.40625 19.027344 17.527344 18.765625 C 17.648438 18.507812 17.742188 18.238281 17.800781 17.957031 C 17.863281 17.675781 17.894531 17.394531 17.894531 17.109375 L 17.894531 10.550781 C 19.292969 11.152344 19.65625 11.457031 19.71875 11.515625 L 20.292969 12.582031 L 20.308594 11.320312 C 20.320312 10.351562 19.855469 9.53125 18.964844 8.941406 Z M 17.695312 9.753906 L 17.242188 9.570312 L 17.242188 17.109375 C 17.242188 17.355469 17.214844 17.597656 17.160156 17.835938 C 17.105469 18.078125 17.023438 18.308594 16.917969 18.53125 C 16.808594 18.753906 16.679688 18.960938 16.527344 19.152344 C 16.371094 19.34375 16.199219 19.515625 16.007812 19.671875 C 15.8125 19.824219 15.605469 19.953125 15.382812 20.058594 C 15.160156 20.167969 14.929688 20.246094 14.691406 20.300781 C 14.449219 20.355469 14.207031 20.382812 13.960938 20.378906 C 13.714844 20.378906 13.46875 20.351562 13.230469 20.296875 C 12.992188 20.242188 12.761719 20.160156 12.539062 20.050781 C 12.316406 19.941406 12.109375 19.8125 11.917969 19.65625 C 11.726562 19.503906 11.554688 19.328125 11.402344 19.136719 C 11.25 18.941406 11.121094 18.734375 11.015625 18.511719 C 10.910156 18.289062 10.828125 18.058594 10.777344 17.816406 C 10.722656 17.578125 10.695312 17.332031 10.699219 17.085938 C 10.699219 16.839844 10.730469 16.597656 10.785156 16.359375 C 10.839844 16.117188 10.925781 15.886719 11.03125 15.667969 C 11.140625 15.445312 11.273438 15.238281 11.429688 15.046875 C 11.582031 14.855469 11.757812 14.683594 11.953125 14.535156 C 12.144531 14.382812 12.355469 14.253906 12.578125 14.148438 C 12.800781 14.042969 13.03125 13.964844 13.273438 13.910156 C 13.511719 13.859375 13.757812 13.835938 14.003906 13.835938 C 14.25 13.839844 14.492188 13.867188 14.730469 13.925781 C 14.96875 13.984375 15.199219 14.066406 15.421875 14.175781 C 15.640625 14.285156 15.847656 14.417969 16.039062 14.574219 L 16.574219 15.011719 L 16.574219 8.523438 L 17.417969 8.964844 L 17.453125 8.984375 L 17.496094 8.992188 C 17.898438 9.101562 18.273438 9.269531 18.621094 9.5 C 19.085938 9.808594 19.394531 10.183594 19.546875 10.613281 C 18.945312 10.292969 18.328125 10.003906 17.691406 9.753906 Z M 17.695312 9.753906 " fill-opacity="1" fill-rule="nonzero"/></g><path fill="#021e21" d="M 13.96875 14.503906 C 13.621094 14.503906 13.289062 14.570312 12.972656 14.703125 C 12.652344 14.835938 12.371094 15.023438 12.128906 15.265625 C 11.882812 15.511719 11.695312 15.792969 11.5625 16.113281 C 11.429688 16.429688 11.363281 16.761719 11.363281 17.109375 C 11.363281 17.453125 11.429688 17.785156 11.5625 18.105469 C 11.695312 18.421875 11.882812 18.703125 12.128906 18.949219 C 12.371094 19.191406 12.652344 19.382812 12.972656 19.511719 C 13.289062 19.644531 13.621094 19.710938 13.96875 19.710938 C 14.3125 19.710938 14.644531 19.644531 14.964844 19.511719 C 15.285156 19.382812 15.566406 19.191406 15.808594 18.949219 C 16.054688 18.703125 16.242188 18.421875 16.375 18.105469 C 16.503906 17.785156 16.570312 17.453125 16.570312 17.109375 C 16.570312 16.761719 16.503906 16.429688 16.371094 16.113281 C 16.238281 15.792969 16.050781 15.511719 15.808594 15.269531 C 15.5625 15.023438 15.28125 14.835938 14.964844 14.703125 C 14.644531 14.570312 14.3125 14.503906 13.96875 14.503906 Z M 13.96875 19.054688 C 13.710938 19.054688 13.460938 19.007812 13.222656 18.90625 C 12.984375 18.808594 12.773438 18.667969 12.589844 18.484375 C 12.410156 18.300781 12.269531 18.09375 12.167969 17.851562 C 12.070312 17.613281 12.019531 17.367188 12.019531 17.109375 C 12.019531 16.851562 12.070312 16.601562 12.167969 16.363281 C 12.269531 16.125 12.410156 15.914062 12.589844 15.730469 C 12.773438 15.546875 12.984375 15.40625 13.222656 15.308594 C 13.460938 15.210938 13.710938 15.160156 13.96875 15.160156 C 14.226562 15.160156 14.476562 15.210938 14.714844 15.308594 C 14.953125 15.40625 15.164062 15.546875 15.34375 15.730469 C 15.527344 15.914062 15.667969 16.125 15.769531 16.363281 C 15.867188 16.601562 15.914062 16.851562 15.914062 17.109375 C 15.914062 17.367188 15.867188 17.613281 15.765625 17.851562 C 15.667969 18.089844 15.527344 18.300781 15.34375 18.484375 C 15.160156 18.667969 14.953125 18.808594 14.714844 18.90625 C 14.476562 19.003906 14.226562 19.054688 13.96875 19.054688 Z M 13.96875 19.054688 " fill-opacity="1" fill-rule="nonzero"/></svg>