<svg xmlns="http://www.w3.org/2000/svg" xmlns:xlink="http://www.w3.org/1999/xlink" width="40" zoomAndPan="magnify" viewBox="0 0 30 30.000001" height="40" preserveAspectRatio="xMidYMid meet" version="1.0"><defs><clipPath id="afb44e989c"><path d="M 6.347656 5.867188 L 23.769531 5.867188 L 23.769531 23.285156 L 6.347656 23.285156 Z M 6.347656 5.867188 " clip-rule="nonzero"/></clipPath></defs><path fill="#000000" d="M 19.453125 12.441406 C 19.367188 11.875 18.882812 11.472656 18.316406 11.472656 L 11.808594 11.472656 C 11.242188 11.472656 10.757812 11.882812 10.671875 12.441406 C 10.589844 12.960938 10.507812 13.6875 10.507812 14.574219 C 10.515625 15.460938 10.589844 16.1875 10.671875 16.710938 C 10.757812 17.269531 11.242188 17.679688 11.808594 17.679688 L 18.308594 17.679688 C 18.875 17.679688 19.367188 17.269531 19.445312 16.710938 C 19.527344 16.183594 19.609375 15.460938 19.609375 14.574219 C 19.609375 13.6875 19.535156 12.960938 19.453125 12.441406 Z M 14.097656 15.816406 L 14.097656 13.34375 L 16.402344 14.582031 Z M 14.097656 15.816406 " fill-opacity="1" fill-rule="nonzero"/><g clip-path="url(#afb44e989c)"><path fill="#000000" d="M 15.058594 23.285156 C 10.261719 23.285156 6.347656 19.382812 6.347656 14.574219 C 6.347656 9.777344 10.261719 5.867188 15.058594 5.867188 C 19.859375 5.867188 23.769531 9.777344 23.769531 14.574219 C 23.769531 19.382812 19.863281 23.285156 15.058594 23.285156 Z M 15.058594 6.34375 C 10.515625 6.34375 6.824219 10.03125 6.824219 14.574219 C 6.824219 19.117188 10.515625 22.808594 15.058594 22.808594 C 19.601562 22.808594 23.292969 19.117188 23.292969 14.574219 C 23.292969 10.03125 19.601562 6.34375 15.058594 6.34375 Z M 15.058594 6.34375 " fill-opacity="1" fill-rule="nonzero"/></g></svg>